<?xml version="1.0" standalone="no"?>
<!DOCTYPE svg PUBLIC "-//W3C//DTD SVG 20010904//EN"
 "http://www.w3.org/TR/2001/REC-SVG-20010904/DTD/svg10.dtd">
<svg version="1.0" xmlns="http://www.w3.org/2000/svg"
 width="246.000000pt" height="246.000000pt" viewBox="0 0 246.000000 246.000000"
 preserveAspectRatio="xMidYMid meet">
<metadata>
Created by potrace 1.11, written by Peter Selinger 2001-2013
</metadata>
<g transform="translate(0.000000,246.000000) scale(0.100000,-0.100000)"
fill="#000000" stroke="none">
<path d="M1323 2230 c-4 -5 -28 -11 -52 -14 -25 -3 -73 -19 -108 -35 -61 -29
-63 -29 -95 -13 -34 17 -115 21 -178 8 -89 -18 -206 -108 -243 -188 -21 -44
-23 -46 -73 -54 -142 -22 -240 -170 -238 -359 1 -47 8 -98 18 -124 35 -95 124
-171 248 -212 40 -13 69 -28 72 -38 3 -9 17 -68 31 -131 33 -143 41 -164 61
-156 19 7 149 30 239 43 78 10 510 10 599 0 87 -11 81 5 -11 27 -83 20 -92 22
-173 32 -69 9 -356 11 -504 3 l-89 -4 -18 67 c-36 144 -37 135 23 162 87 39
87 39 174 60 156 38 337 49 529 32 44 -4 76 -4 72 1 -5 4 -54 18 -110 30 -138
29 -389 26 -547 -6 -58 -12 -116 -24 -130 -27 -14 -3 -39 -9 -57 -13 -112 -31
-235 35 -289 153 -43 94 -34 195 24 280 31 45 97 79 144 74 32 -3 35 -1 63 63
52 118 200 199 300 166 17 -5 41 -18 54 -27 24 -17 26 -16 75 21 90 69 213
101 298 79 85 -23 192 -127 218 -213 7 -23 14 -64 16 -92 l2 -50 94 -5 c163
-9 231 -65 230 -189 0 -100 -68 -200 -175 -259 -58 -33 -59 -34 -63 -94 -2
-29 -6 -79 -8 -110 -3 -32 -1 -58 3 -58 3 0 18 37 31 81 14 45 32 85 40 89 8
5 35 16 60 26 154 62 262 214 247 346 -18 145 -129 259 -270 277 -29 3 -52 11
-53 16 -8 157 -173 298 -384 330 -77 12 -89 12 -97 5z"/>
<path d="M1000 1732 c0 -22 34 -151 67 -255 14 -45 17 -48 42 -42 14 4 27 8
28 9 7 6 -47 147 -80 211 -50 97 -57 106 -57 77z"/>
<path d="M1406 1658 c-24 -51 -53 -119 -65 -151 l-21 -57 25 -12 c38 -17 34
-28 106 237 22 83 21 75 9 75 -6 0 -30 -42 -54 -92z"/>
<path d="M1623 1506 c-79 -78 -95 -98 -83 -106 37 -24 54 -11 123 91 38 55 66
103 63 106 -2 3 -49 -38 -103 -91z"/>
<path d="M744 1579 c5 -7 34 -53 65 -101 56 -88 75 -101 111 -78 12 8 9 15
-20 46 -86 91 -174 166 -156 133z"/>
<path d="M1015 749 c-22 -12 -66 -41 -97 -66 -68 -52 -141 -90 -185 -98 -42
-7 -99 17 -108 44 -12 39 -27 23 -20 -21 9 -57 39 -109 78 -135 36 -25 117
-56 117 -45 0 4 5 0 10 -8 7 -11 10 -11 10 -2 0 8 5 10 12 6 16 -10 78 -13 78
-4 0 4 21 10 46 14 66 9 187 69 234 117 l40 41 38 -37 c63 -62 165 -112 269
-131 103 -18 214 13 273 78 28 30 50 87 50 129 0 22 -2 21 -29 -11 -25 -31
-33 -34 -77 -34 -58 1 -108 25 -219 104 -98 70 -109 76 -162 79 -47 3 -88 -15
-121 -54 l-23 -26 -20 26 c-46 57 -124 71 -194 34z"/>
</g>
</svg>
